<svg xmlns="http://www.w3.org/2000/svg" xmlns:xlink="http://www.w3.org/1999/xlink" width="210" height="196.189" viewBox="0 0 210 196.189">
  <defs>
    <clipPath id="clip-path">
      <rect id="Rect치ngulo_34748" data-name="Rect치ngulo 34748" width="102" height="102" transform="translate(444 9050)" fill="#3c3fa7"/>
    </clipPath>
  </defs>
  <g id="Grupo_88092" data-name="Grupo 88092" transform="translate(-390 -9050)">
    <g id="Grupo_85028" data-name="Grupo 85028" transform="translate(125 6784)">
      <rect id="Rect치ngulo_34630" data-name="Rect치ngulo 34630" width="210" height="170" transform="translate(265 2292.188)" fill="#ff5f65"/>
    </g>
    <path id="Trazado_120198" data-name="Trazado 120198" d="M7.532-2.4H3.445L2.312,0H-1L5.774-12.8H8.6L10.969,0H7.84ZM4.57-4.772H7.225L6.662-9.185ZM12.5,0,13.79-7.453H12.454l.352-2.057,1.336-.009.114-.835a3.881,3.881,0,0,1,1.213-2.417,3.937,3.937,0,0,1,2.769-.932,8.524,8.524,0,0,1,1.433.194l-.22,2.2a2.8,2.8,0,0,0-.686-.105,1.8,1.8,0,0,0-1.059.293,1.311,1.311,0,0,0-.532.844l-.132.77h1.8l-.352,2.057h-1.8L15.4,0Zm6.451,0,1.292-7.453H18.905l.36-2.057,1.248.009.07-.36a4.662,4.662,0,0,1,1.639-2.856,5.076,5.076,0,0,1,3.283-.976,13.29,13.29,0,0,1,3.023.5l-.615,2.355a7.643,7.643,0,0,0-2.391-.413,2.326,2.326,0,0,0-1.31.365,1.816,1.816,0,0,0-.747,1.121l-.062.264,1.907-.009-.369,2.057h-1.8L21.85,0Zm8.692,0h-2.9l1.644-9.51h2.909Zm8.692-6.829a8.273,8.273,0,0,0-.9-.088,2.233,2.233,0,0,0-1.986.9L32.379,0H29.487L31.14-9.51l2.7-.009-.22,1.248a2.64,2.64,0,0,1,2.2-1.441,4.144,4.144,0,0,1,.9.123Zm4.2-2.689-.193,1.143a3.414,3.414,0,0,1,2.777-1.31,2.509,2.509,0,0,1,1.415.4,1.843,1.843,0,0,1,.738,1.028,3.619,3.619,0,0,1,2.892-1.433A2.241,2.241,0,0,1,50.12-8.7a4.117,4.117,0,0,1,.461,2.711L49.588,0h-2.9L47.7-5.987l.035-.518q0-.869-.817-.9a1.872,1.872,0,0,0-1.424.781L44.341,0h-2.9l1-5.969.035-.527q0-.9-.817-.9a1.86,1.86,0,0,0-1.406.781L39.085,0H36.193l1.652-9.51ZM56.663,0a2.578,2.578,0,0,1-.123-.861A2.933,2.933,0,0,1,54.211.176,2.866,2.866,0,0,1,52.154-.65a2.483,2.483,0,0,1-.765-1.96,2.79,2.79,0,0,1,1.292-2.377,6.091,6.091,0,0,1,3.41-.831l.967.018.105-.536L57.2-6.8a.755.755,0,0,0-.8-.826A1.111,1.111,0,0,0,55.23-6.583l-2.9.009a2.754,2.754,0,0,1,.624-1.666,3.7,3.7,0,0,1,1.578-1.09,5.512,5.512,0,0,1,2.123-.356,4.251,4.251,0,0,1,1.894.453,2.82,2.82,0,0,1,1.217,1.187,3.031,3.031,0,0,1,.308,1.753l-.712,4.474-.044.545a2.4,2.4,0,0,0,.167,1.107L59.476,0ZM55.011-1.916A1.865,1.865,0,0,0,56.566-2.7l.29-1.529-.747-.009a1.969,1.969,0,0,0-1.2.409,1.55,1.55,0,0,0-.589,1.068.778.778,0,0,0,.136.593A.7.7,0,0,0,55.011-1.916Zm11.065-9.958L65.663-9.51h1.521l-.36,2.057H65.3l-.738,4.368a1.164,1.164,0,0,0,.057.677q.119.229.593.246a6.873,6.873,0,0,0,.756-.044L65.76-.062A4.673,4.673,0,0,1,64.2.158a2.563,2.563,0,0,1-2.013-.791,2.7,2.7,0,0,1-.545-2.1l.773-4.72H61.242l.352-2.057h1.178l.413-2.364ZM69.785,0h-2.9l1.652-9.51h2.9Zm-.993-11.909a1.341,1.341,0,0,1,.453-1.072,1.625,1.625,0,0,1,1.138-.431,1.678,1.678,0,0,1,1.129.387,1.318,1.318,0,0,1,.47,1.011,1.344,1.344,0,0,1-.448,1.077,1.63,1.63,0,0,1-1.143.426,1.7,1.7,0,0,1-1.121-.382A1.3,1.3,0,0,1,68.792-11.909ZM75.92-3.56,78.3-9.51h3.12L76.922,0H73.978L72.457-9.51h2.971ZM85.456.176a4.421,4.421,0,0,1-2.272-.6,3.793,3.793,0,0,1-1.507-1.652,4.44,4.44,0,0,1-.4-2.333l.026-.246a5.829,5.829,0,0,1,1.63-3.713,4.51,4.51,0,0,1,3.415-1.314,3.678,3.678,0,0,1,2.092.621A3.468,3.468,0,0,1,89.71-7.4a5.1,5.1,0,0,1,.264,2.381l-.167,1.206h-5.66A1.854,1.854,0,0,0,84.568-2.6a1.549,1.549,0,0,0,1.178.492A2.993,2.993,0,0,0,88-3.076l1.213,1.6a3.578,3.578,0,0,1-1.5,1.2,5.263,5.263,0,0,1-2.1.451Zm.7-7.576a1.487,1.487,0,0,0-1.068.385A3.229,3.229,0,0,0,84.3-5.669H87.2l.053-.254a1.929,1.929,0,0,0,.018-.577A1.017,1.017,0,0,0,86.159-7.4Z" transform="translate(450 9203)" fill="#fff"/>
    <path id="Trazado_120197" data-name="Trazado 120197" d="M8.235-2.391H4.008L3.27,0h-3.3L4.667-12.8h2.9L12.3,0H8.982ZM4.746-4.772H7.5L6.117-9.211ZM13.781,0V-7.453H12.4V-9.51h1.38v-.316a3.631,3.631,0,0,1,1.248-2.909,4.987,4.987,0,0,1,3.243-.949,11.509,11.509,0,0,1,3.094.51l-.4,2.338-.492-.132a7.832,7.832,0,0,0-2.021-.255q-1.7,0-1.7,1.547v.167h1.863v2.057H16.752V0Zm8.947,0H19.749V-9.51h2.979Zm7.559-6.829-.976-.07a1.752,1.752,0,0,0-1.793.879V0H24.557V-9.51h2.777l.1,1.222a2.294,2.294,0,0,1,2.083-1.4,2.888,2.888,0,0,1,.826.105ZM34.154-9.51l.1,1.116a3.27,3.27,0,0,1,2.716-1.292A2.407,2.407,0,0,1,39.4-8.253,3.165,3.165,0,0,1,42.2-9.686q2.892,0,2.971,3.5V0H42.2V-6a1.813,1.813,0,0,0-.246-1.063,1.048,1.048,0,0,0-.9-.334,1.4,1.4,0,0,0-1.31.782l.009.123V0H36.782V-5.985a1.906,1.906,0,0,0-.237-1.081A1.045,1.045,0,0,0,35.64-7.4a1.42,1.42,0,0,0-1.3.782V0H31.377V-9.51ZM52.216,0a3.344,3.344,0,0,1-.281-.853A2.754,2.754,0,0,1,49.649.176a3.374,3.374,0,0,1-2.285-.813,2.588,2.588,0,0,1-.94-2.043,2.66,2.66,0,0,1,1.143-2.338,5.821,5.821,0,0,1,3.322-.791H51.8v-.5q0-1.316-1.134-1.316a.927.927,0,0,0-1.055,1.042H46.652a2.655,2.655,0,0,1,1.173-2.239,4.931,4.931,0,0,1,2.993-.86,4.323,4.323,0,0,1,2.874.888,3.086,3.086,0,0,1,1.081,2.435v4.21a4.311,4.311,0,0,0,.4,2V0ZM50.361-1.934a1.652,1.652,0,0,0,.918-.237,1.487,1.487,0,0,0,.523-.536V-4.228h-.861q-1.547,0-1.547,1.389a.848.848,0,0,0,.272.655A.986.986,0,0,0,50.361-1.934Zm9.5-9.94V-9.51h1.564v2.057H59.862V-3.1a1.111,1.111,0,0,0,.193.747,1.037,1.037,0,0,0,.765.211,4.345,4.345,0,0,0,.738-.053V-.079a5.466,5.466,0,0,1-1.67.255A3.1,3.1,0,0,1,57.63-.545,2.954,2.954,0,0,1,56.9-2.733v-4.72H55.688V-9.51H56.9v-2.364ZM65.716,0H62.745V-9.51h2.971ZM62.569-11.962A1.322,1.322,0,0,1,63.026-13a1.724,1.724,0,0,1,1.187-.4A1.724,1.724,0,0,1,65.4-13a1.322,1.322,0,0,1,.457,1.037,1.322,1.322,0,0,1-.457,1.037,1.724,1.724,0,0,1-1.187.4,1.724,1.724,0,0,1-1.187-.4A1.322,1.322,0,0,1,62.569-11.962Zm8.763,8.438,1.5-5.985h3.12L72.853,0H69.829l-3.1-9.51h3.129ZM82.063,0a3.344,3.344,0,0,1-.281-.853A2.754,2.754,0,0,1,79.5.176a3.374,3.374,0,0,1-2.285-.813,2.588,2.588,0,0,1-.94-2.043,2.66,2.66,0,0,1,1.143-2.338,5.821,5.821,0,0,1,3.322-.791h.914v-.5q0-1.316-1.134-1.316a.927.927,0,0,0-1.055,1.042H76.5a2.655,2.655,0,0,1,1.173-2.239,4.931,4.931,0,0,1,2.993-.86A4.323,4.323,0,0,1,83.54-8.8a3.086,3.086,0,0,1,1.081,2.435v4.21a4.311,4.311,0,0,0,.4,2V0ZM80.209-1.934a1.652,1.652,0,0,0,.918-.237,1.487,1.487,0,0,0,.523-.536V-4.228h-.861q-1.547,0-1.547,1.389a.848.848,0,0,0,.272.655A.986.986,0,0,0,80.209-1.934Z" transform="translate(450 9227)" fill="#12263f"/>
    <g id="Enmascarar_grupo_109" data-name="Enmascarar grupo 109" clip-path="url(#clip-path)">
      <g id="voto-positivo" transform="translate(444.689 9050)">
        <path id="Trazado_118798" data-name="Trazado 118798" d="M90.789,55.864A44.552,44.552,0,1,1,46.236,11.311,44.553,44.553,0,0,1,90.789,55.864Zm0,0" fill="#937de2"/>
        <path id="Trazado_118799" data-name="Trazado 118799" d="M46.236,11.311a44.935,44.935,0,0,0-6.924.536,44.557,44.557,0,0,1,0,88.03,44.553,44.553,0,1,0,6.921-88.566Zm0,0" fill="#7570d6"/>
        <path id="Trazado_118800" data-name="Trazado 118800" d="M96.35,52.57,70.91,69.416a8.663,8.663,0,0,1-6.154,1.334,8.692,8.692,0,0,0-6.169,1.331l-3.4,2.256-19.067-28.1,4.678-20.209a21.085,21.085,0,0,0-2.963-16.4,5.043,5.043,0,0,1,7.714-6.405l3.03,2.935a32.4,32.4,0,0,1,7.819,11.984l1.644,4.424,16.922-11.18a5.77,5.77,0,0,1,8.085,1.761,5.847,5.847,0,0,1-1.812,7.927.063.063,0,0,0-.023.08.064.064,0,0,0,.082.032,5.717,5.717,0,0,1,2.062-.383,5.767,5.767,0,0,1,5.665,6.889A5.9,5.9,0,0,1,86.6,31.34a.124.124,0,0,0-.032.171,0,0,0,0,0,0,0,.121.121,0,0,0,.163.032,5.915,5.915,0,0,1,1.4-.165,6.082,6.082,0,0,1,3.254.943,5.669,5.669,0,0,1,1.683,1.651,5.769,5.769,0,0,1-1.626,8c-.065.044-.131.089-.2.131a.09.09,0,0,0-.03.113.054.054,0,0,0,.021.021.093.093,0,0,0,.114,0,5.65,5.65,0,0,1,4.9.63,5.858,5.858,0,0,1,1.723,1.709,5.772,5.772,0,0,1-1.623,8Zm0,0" fill="#fdd7bd"/>
        <path id="Trazado_118801" data-name="Trazado 118801" d="M55.426,79.67,44.694,86.778,29.2,97.039A44.6,44.6,0,0,1,2.1,61.987L20.086,50.079,31.032,42.83a2.738,2.738,0,0,1,3.8.774L56.2,75.872a2.741,2.741,0,0,1-.774,3.8Zm0,0" fill="#87dbff"/>
        <path id="Trazado_118802" data-name="Trazado 118802" d="M55.426,79.67,44.694,86.778l-24.608-36.7L31.032,42.83a2.738,2.738,0,0,1,3.8.774L56.2,75.872a2.741,2.741,0,0,1-.774,3.8Zm0,0" fill="#6fc7ff"/>
        <g id="Grupo_85390" data-name="Grupo 85390">
          <path id="Trazado_118803" data-name="Trazado 118803" d="M86.5,21.722l-8.465,4.53a2.743,2.743,0,0,1-3.5-.787l6.674-4.318a.064.064,0,0,0,.082.032,5.717,5.717,0,0,1,2.062-.383,5.811,5.811,0,0,1,3.145.926Zm0,0" fill="#fac5aa"/>
          <path id="Trazado_118804" data-name="Trazado 118804" d="M91.388,32.326l-8.281,4.428a2.74,2.74,0,0,1-3.5-.784l6.674-4.318.288-.135a.121.121,0,0,0,.163.032,5.925,5.925,0,0,1,1.4-.165,6.072,6.072,0,0,1,3.254.943Zm0,0" fill="#fac5aa"/>
          <path id="Trazado_118805" data-name="Trazado 118805" d="M96.251,42.863l-7.294,3.9a2.744,2.744,0,0,1-3.5-.787l5.781-3.741a.093.093,0,0,0,.114,0,5.65,5.65,0,0,1,4.9.63Zm0,0" fill="#fac5aa"/>
        </g>
        <path id="Trazado_118806" data-name="Trazado 118806" d="M99.3,43.7a7.306,7.306,0,0,0-4.524-3.114,7.348,7.348,0,0,0-4.9-10.592,7.365,7.365,0,0,0-.381-7.485,7.3,7.3,0,0,0-4.524-3.114A7.355,7.355,0,0,0,74.394,9.838l-7.323,4.85A45.76,45.76,0,0,0,54.707,10.5,34,34,0,0,0,49.988,4.8l-3.03-2.936a6.629,6.629,0,0,0-10.141,8.419q.119.181.234.363A46.139,46.139,0,1,0,89.643,71.534a1.586,1.586,0,1,0-2.983-1.077A43.023,43.023,0,0,1,32.67,96.642l12.9-8.545,0,0,0,0,10.724-7.1h0A4.326,4.326,0,0,0,57.522,75l-.142-.215,2.083-1.38A7.065,7.065,0,0,1,64.5,72.315a10.226,10.226,0,0,0,7.288-1.576L89.064,59.3a43.058,43.058,0,0,1-.584,4.454A1.585,1.585,0,0,0,89.75,65.6a1.547,1.547,0,0,0,.291.027,1.586,1.586,0,0,0,1.557-1.3,46.384,46.384,0,0,0,.758-7.213l4.869-3.225A7.357,7.357,0,0,0,99.3,43.7ZM63.991,16.727l-4.846,3.209-.954-2.57a33.94,33.94,0,0,0-1.361-3.152,42.573,42.573,0,0,1,7.161,2.514Zm-50.223,11a42.97,42.97,0,0,1,24.8-14.141,19.594,19.594,0,0,1,.988,11.867L35.691,42.153a4.317,4.317,0,0,0-5.535-.645L19.2,48.761h0L3.4,59.224c-.086-1.114-.132-2.237-.132-3.359a42.953,42.953,0,0,1,10.5-28.143ZM55.045,77.614a1.149,1.149,0,0,1-.495.733h0l-9.419,6.237L27.649,58.513a1.586,1.586,0,0,0-2.634,1.767L42.486,86.336l-13.446,8.9A43.1,43.1,0,0,1,3.818,62.693l15.816-10.44,1.82,2.716A1.586,1.586,0,1,0,24.089,53.2l-1.808-2.7,9.626-6.354a1.154,1.154,0,0,1,1.6.326l21.371,32.27a1.143,1.143,0,0,1,.168.865ZM97.264,48.591a4.156,4.156,0,0,1-1.791,2.656l-5.566,3.686-.005,0L70.033,68.095A7.061,7.061,0,0,1,65,69.182a10.231,10.231,0,0,0-7.288,1.576l-2.083,1.38-17.5-26.43,4.524-19.544a22.787,22.787,0,0,0-1.668-14.959,1.554,1.554,0,0,0-.067-.141,22.435,22.435,0,0,0-1.451-2.538,3.457,3.457,0,0,1,5.289-4.391l3.03,2.937a30.988,30.988,0,0,1,7.436,11.4l1.65,4.444.009.023.012.031c.012.027.023.052.034.073a1.565,1.565,0,0,0,.109.2,1.585,1.585,0,0,0,2.2.447l16.916-11.2a4.184,4.184,0,1,1,4.621,6.977l-1.468.973h0L76.021,22.6l-.012.009c-.019.013-.037.026-.051.038a1.585,1.585,0,0,0,1.816,2.6l3.278-2.171a4.185,4.185,0,0,1,4.619,6.98L80.923,33.2a1.586,1.586,0,1,0,1.751,2.644l.735-.486,2.542-1.683a4.185,4.185,0,0,1,4.621,6.978l-2.37,1.57-.037.025-2.338,1.548a1.586,1.586,0,1,0,1.751,2.645l.735-.486h0l2.542-1.682a4.183,4.183,0,0,1,6.41,4.321Zm0,0"/>
      </g>
    </g>
  </g>
</svg>
