<svg xmlns="http://www.w3.org/2000/svg" xmlns:xlink="http://www.w3.org/1999/xlink" width="210" height="196.189" viewBox="0 0 210 196.189">
  <defs>
    <clipPath id="clip-path">
      <rect id="Rect치ngulo_34748" data-name="Rect치ngulo 34748" width="102" height="102" transform="translate(444 9428)" fill="#ffd947"/>
    </clipPath>
  </defs>
  <g id="Grupo_88093" data-name="Grupo 88093" transform="translate(-390 -9649.35)">
    <g id="Grupo_85028" data-name="Grupo 85028" transform="translate(125 7383.35)">
      <rect id="Rect치ngulo_34630" data-name="Rect치ngulo 34630" width="210" height="170" transform="translate(265 2292.188)" fill="#3c3fa7"/>
    </g>
    <path id="Trazado_120199" data-name="Trazado 120199" d="M10.4,0H7.488L4.43-8.077,3.023,0H.018L2.232-12.8H5.168L8.218-4.72l1.4-8.077h3.006Zm6.565.176a4.421,4.421,0,0,1-2.272-.6,3.793,3.793,0,0,1-1.507-1.652,4.44,4.44,0,0,1-.4-2.333l.026-.246a5.829,5.829,0,0,1,1.63-3.713,4.51,4.51,0,0,1,3.415-1.314,3.678,3.678,0,0,1,2.092.621A3.468,3.468,0,0,1,21.217-7.4,5.1,5.1,0,0,1,21.48-5.02l-.167,1.206h-5.66A1.854,1.854,0,0,0,16.075-2.6a1.549,1.549,0,0,0,1.178.492,2.993,2.993,0,0,0,2.259-.967l1.213,1.6a3.578,3.578,0,0,1-1.5,1.2,5.263,5.263,0,0,1-2.1.451Zm.7-7.576a1.487,1.487,0,0,0-1.068.385,3.229,3.229,0,0,0-.787,1.347H18.7l.053-.254a1.929,1.929,0,0,0,.018-.577A1.017,1.017,0,0,0,17.666-7.4Zm4.658,2.628a7.226,7.226,0,0,1,.787-2.593,4.564,4.564,0,0,1,1.551-1.753,3.735,3.735,0,0,1,2.109-.576,2.6,2.6,0,0,1,2.162,1.028l.308-.853,2.672.009L30.357-.369a4.467,4.467,0,0,1-1.7,3.05,5.4,5.4,0,0,1-3.568,1.063,5.1,5.1,0,0,1-1.837-.378,3.957,3.957,0,0,1-1.521-1.09L23.106.571a2.489,2.489,0,0,0,1.986.993A2.324,2.324,0,0,0,27.536-.483l.07-.29a2.973,2.973,0,0,1-2.171.949,2.932,2.932,0,0,1-1.608-.461,3.034,3.034,0,0,1-1.09-1.305,5.076,5.076,0,0,1-.448-1.9A8.253,8.253,0,0,1,22.324-4.772Zm2.856.94a2.306,2.306,0,0,0,.29,1.257.984.984,0,0,0,.844.466A1.933,1.933,0,0,0,27.8-2.742l.747-4.034a1.281,1.281,0,0,0-1.178-.633,1.683,1.683,0,0,0-1.415.716,3.861,3.861,0,0,0-.721,1.929Q25.181-4.21,25.181-3.832ZM37.327,0A2.578,2.578,0,0,1,37.2-.861,2.933,2.933,0,0,1,34.875.176,2.866,2.866,0,0,1,32.818-.65a2.483,2.483,0,0,1-.765-1.96,2.79,2.79,0,0,1,1.292-2.377,6.091,6.091,0,0,1,3.41-.831l.967.018.105-.536.035-.466a.755.755,0,0,0-.8-.826,1.111,1.111,0,0,0-1.169,1.046l-2.9.009a2.754,2.754,0,0,1,.624-1.666A3.7,3.7,0,0,1,35.2-9.33a5.512,5.512,0,0,1,2.123-.356,4.251,4.251,0,0,1,1.894.453A2.82,2.82,0,0,1,40.43-8.046a3.031,3.031,0,0,1,.308,1.753l-.712,4.474-.044.545a2.4,2.4,0,0,0,.167,1.107L40.14,0ZM35.675-1.916A1.865,1.865,0,0,0,37.23-2.7l.29-1.529-.747-.009a1.969,1.969,0,0,0-1.2.409,1.55,1.55,0,0,0-.589,1.068.778.778,0,0,0,.136.593A.7.7,0,0,0,35.675-1.916ZM46.74-11.874,46.327-9.51h1.521l-.36,2.057H45.967l-.738,4.368a1.164,1.164,0,0,0,.057.677q.119.229.593.246a6.873,6.873,0,0,0,.756-.044L46.424-.062a4.673,4.673,0,0,1-1.556.22,2.563,2.563,0,0,1-2.013-.791,2.7,2.7,0,0,1-.545-2.1l.773-4.72H41.906l.352-2.057h1.178l.413-2.364ZM50.449,0h-2.9L49.2-9.51h2.9Zm-.993-11.909a1.341,1.341,0,0,1,.453-1.072,1.625,1.625,0,0,1,1.138-.431,1.678,1.678,0,0,1,1.129.387,1.318,1.318,0,0,1,.47,1.011,1.344,1.344,0,0,1-.448,1.077,1.63,1.63,0,0,1-1.143.426,1.7,1.7,0,0,1-1.121-.382A1.3,1.3,0,0,1,49.456-11.909Zm7.128,8.35,2.382-5.95h3.12L57.586,0H54.642L53.121-9.51h2.971ZM66.12.176a4.421,4.421,0,0,1-2.272-.6,3.793,3.793,0,0,1-1.507-1.652,4.44,4.44,0,0,1-.4-2.333l.026-.246a5.829,5.829,0,0,1,1.63-3.713,4.51,4.51,0,0,1,3.415-1.314,3.678,3.678,0,0,1,2.092.621A3.468,3.468,0,0,1,70.374-7.4a5.1,5.1,0,0,1,.264,2.381l-.167,1.206h-5.66A1.854,1.854,0,0,0,65.232-2.6a1.549,1.549,0,0,0,1.178.492,2.993,2.993,0,0,0,2.259-.967l1.213,1.6a3.578,3.578,0,0,1-1.5,1.2,5.263,5.263,0,0,1-2.1.451Zm.7-7.576a1.487,1.487,0,0,0-1.068.385,3.229,3.229,0,0,0-.787,1.347H67.86l.053-.254a1.929,1.929,0,0,0,.018-.577A1.017,1.017,0,0,0,66.823-7.4Z" transform="translate(450 9802.35)" fill="#ff5f65"/>
    <path id="Trazado_120200" data-name="Trazado 120200" d="M10.4,0H7.488L4.43-8.077,3.023,0H.018L2.232-12.8H5.168L8.218-4.72l1.4-8.077h3.006Zm6.565.176a4.421,4.421,0,0,1-2.272-.6,3.793,3.793,0,0,1-1.507-1.652,4.44,4.44,0,0,1-.4-2.333l.026-.246a5.829,5.829,0,0,1,1.63-3.713,4.51,4.51,0,0,1,3.415-1.314,3.678,3.678,0,0,1,2.092.621A3.468,3.468,0,0,1,21.217-7.4,5.1,5.1,0,0,1,21.48-5.02l-.167,1.206h-5.66A1.854,1.854,0,0,0,16.075-2.6a1.549,1.549,0,0,0,1.178.492,2.993,2.993,0,0,0,2.259-.967l1.213,1.6a3.578,3.578,0,0,1-1.5,1.2,5.263,5.263,0,0,1-2.1.451Zm.7-7.576a1.487,1.487,0,0,0-1.068.385,3.229,3.229,0,0,0-.787,1.347H18.7l.053-.254a1.929,1.929,0,0,0,.018-.577A1.017,1.017,0,0,0,17.666-7.4Zm4.658,2.628a7.226,7.226,0,0,1,.787-2.593,4.564,4.564,0,0,1,1.551-1.753,3.735,3.735,0,0,1,2.109-.576,2.6,2.6,0,0,1,2.162,1.028l.308-.853,2.672.009L30.357-.369a4.467,4.467,0,0,1-1.7,3.05,5.4,5.4,0,0,1-3.568,1.063,5.1,5.1,0,0,1-1.837-.378,3.957,3.957,0,0,1-1.521-1.09L23.106.571a2.489,2.489,0,0,0,1.986.993A2.324,2.324,0,0,0,27.536-.483l.07-.29a2.973,2.973,0,0,1-2.171.949,2.932,2.932,0,0,1-1.608-.461,3.034,3.034,0,0,1-1.09-1.305,5.076,5.076,0,0,1-.448-1.9A8.253,8.253,0,0,1,22.324-4.772Zm2.856.94a2.306,2.306,0,0,0,.29,1.257.984.984,0,0,0,.844.466A1.933,1.933,0,0,0,27.8-2.742l.747-4.034a1.281,1.281,0,0,0-1.178-.633,1.683,1.683,0,0,0-1.415.716,3.861,3.861,0,0,0-.721,1.929Q25.181-4.21,25.181-3.832ZM37.327,0A2.578,2.578,0,0,1,37.2-.861,2.933,2.933,0,0,1,34.875.176,2.866,2.866,0,0,1,32.818-.65a2.483,2.483,0,0,1-.765-1.96,2.79,2.79,0,0,1,1.292-2.377,6.091,6.091,0,0,1,3.41-.831l.967.018.105-.536.035-.466a.755.755,0,0,0-.8-.826,1.111,1.111,0,0,0-1.169,1.046l-2.9.009a2.754,2.754,0,0,1,.624-1.666A3.7,3.7,0,0,1,35.2-9.33a5.512,5.512,0,0,1,2.123-.356,4.251,4.251,0,0,1,1.894.453A2.82,2.82,0,0,1,40.43-8.046a3.031,3.031,0,0,1,.308,1.753l-.712,4.474-.044.545a2.4,2.4,0,0,0,.167,1.107L40.14,0ZM35.675-1.916A1.865,1.865,0,0,0,37.23-2.7l.29-1.529-.747-.009a1.969,1.969,0,0,0-1.2.409,1.55,1.55,0,0,0-.589,1.068.778.778,0,0,0,.136.593A.7.7,0,0,0,35.675-1.916ZM46.74-11.874,46.327-9.51h1.521l-.36,2.057H45.967l-.738,4.368a1.164,1.164,0,0,0,.057.677q.119.229.593.246a6.873,6.873,0,0,0,.756-.044L46.424-.062a4.673,4.673,0,0,1-1.556.22,2.563,2.563,0,0,1-2.013-.791,2.7,2.7,0,0,1-.545-2.1l.773-4.72H41.906l.352-2.057h1.178l.413-2.364ZM50.449,0h-2.9L49.2-9.51h2.9Zm-.993-11.909a1.341,1.341,0,0,1,.453-1.072,1.625,1.625,0,0,1,1.138-.431,1.678,1.678,0,0,1,1.129.387,1.318,1.318,0,0,1,.47,1.011,1.344,1.344,0,0,1-.448,1.077,1.63,1.63,0,0,1-1.143.426,1.7,1.7,0,0,1-1.121-.382A1.3,1.3,0,0,1,49.456-11.909Zm7.128,8.35,2.382-5.95h3.12L57.586,0H54.642L53.121-9.51h2.971ZM66.12.176a4.421,4.421,0,0,1-2.272-.6,3.793,3.793,0,0,1-1.507-1.652,4.44,4.44,0,0,1-.4-2.333l.026-.246a5.829,5.829,0,0,1,1.63-3.713,4.51,4.51,0,0,1,3.415-1.314,3.678,3.678,0,0,1,2.092.621A3.468,3.468,0,0,1,70.374-7.4a5.1,5.1,0,0,1,.264,2.381l-.167,1.206h-5.66A1.854,1.854,0,0,0,65.232-2.6a1.549,1.549,0,0,0,1.178.492,2.993,2.993,0,0,0,2.259-.967l1.213,1.6a3.578,3.578,0,0,1-1.5,1.2,5.263,5.263,0,0,1-2.1.451Zm.7-7.576a1.487,1.487,0,0,0-1.068.385,3.229,3.229,0,0,0-.787,1.347H67.86l.053-.254a1.929,1.929,0,0,0,.018-.577A1.017,1.017,0,0,0,66.823-7.4Z" transform="translate(450 9826.35)" fill="#fff"/>
    <g id="Enmascarar_grupo_110" data-name="Enmascarar grupo 110" transform="translate(0 221.35)" clip-path="url(#clip-path)">
      <g id="voto-negativo" transform="translate(445.166 9428)">
        <path id="Trazado_118807" data-name="Trazado 118807" d="M97.995,45.788A44.18,44.18,0,1,1,70.689,4.924c.093.038.184.075.275.116A44.258,44.258,0,0,1,97.579,39.712c0,.006,0,.012,0,.019a44.439,44.439,0,0,1,.413,6.058Zm0,0" fill="#f8a28b"/>
        <path id="Trazado_118808" data-name="Trazado 118808" d="M97.581,39.731c0-.006,0-.012,0-.019A44.259,44.259,0,0,0,70.964,5.04c-.09-.04-.182-.078-.275-.116A44.393,44.393,0,0,0,46.332,2.2a43.793,43.793,0,0,1,9.455,2.721c.093.038.185.075.275.116A44.258,44.258,0,0,1,82.677,39.712c0,.006,0,.012,0,.019A44.252,44.252,0,0,1,46.328,89.378,44.242,44.242,0,0,0,97.581,39.731Zm0,0" fill="#f58c79"/>
        <path id="Trazado_118809" data-name="Trazado 118809" d="M4.224,49.661,29.343,32.819a8.47,8.47,0,0,1,6.076-1.334,8.495,8.495,0,0,0,6.091-1.33L44.871,27.9,63.7,56,59.078,76.2A21.321,21.321,0,0,0,62,92.6a5.086,5.086,0,0,1-1.4,6.987A4.928,4.928,0,0,1,54.387,99l-2.992-2.935a32.422,32.422,0,0,1-7.72-11.981l-1.623-4.423L25.345,90.843a5.656,5.656,0,0,1-7.983-1.761,5.889,5.889,0,0,1,1.79-7.924.064.064,0,0,0,.023-.081.062.062,0,0,0-.081-.031,5.6,5.6,0,0,1-2.036.382A5.669,5.669,0,0,1,12.3,78.845a5.8,5.8,0,0,1-.837-4.305,5.892,5.892,0,0,1,2.388-3.654.124.124,0,0,0,.031-.171,0,0,0,0,0,0,0,.12.12,0,0,0-.16-.032,5.779,5.779,0,0,1-1.383.165A5.947,5.947,0,0,1,9.123,69.9a5.629,5.629,0,0,1-1.662-1.651,5.812,5.812,0,0,1,1.605-7.994c.065-.045.13-.089.195-.132a.09.09,0,0,0,.029-.112.044.044,0,0,0-.02-.021.091.091,0,0,0-.113,0,5.52,5.52,0,0,1-4.833-.63,5.838,5.838,0,0,1-.1-9.706Zm0,0" fill="#fdd7bd"/>
        <path id="Trazado_118810" data-name="Trazado 118810" d="M97.581,39.731,79.525,52.151,68.716,59.4a2.682,2.682,0,0,1-3.746-.773l-21.1-32.261a2.763,2.763,0,0,1,.764-3.8l10.6-7.1L70.964,5.039A44.26,44.26,0,0,1,97.579,39.712c0,.006,0,.012,0,.019Zm0,0" fill="#87dbff"/>
        <path id="Trazado_118811" data-name="Trazado 118811" d="M44.632,22.567l10.6-7.106,24.3,36.691L68.717,59.4a2.684,2.684,0,0,1-3.749-.774l-21.1-32.261a2.762,2.762,0,0,1,.764-3.8Zm0,0" fill="#6fc7ff"/>
        <g id="Grupo_85396" data-name="Grupo 85396">
          <path id="Trazado_118812" data-name="Trazado 118812" d="M13.952,80.5l8.358-4.528a2.687,2.687,0,0,1,3.454.786l-6.59,4.317a.063.063,0,0,0-.081-.032,5.581,5.581,0,0,1-2.036.383,5.675,5.675,0,0,1-3.105-.926Zm0,0" fill="#fac5aa"/>
          <path id="Trazado_118813" data-name="Trazado 118813" d="M9.123,69.9,17.3,65.474a2.684,2.684,0,0,1,3.454.784l-6.59,4.317-.284.135a.12.12,0,0,0-.16-.032,5.74,5.74,0,0,1-1.383.165A5.945,5.945,0,0,1,9.123,69.9Zm0,0" fill="#fac5aa"/>
          <path id="Trazado_118814" data-name="Trazado 118814" d="M4.322,59.366l7.2-3.9a2.688,2.688,0,0,1,3.454.787l-5.708,3.74a.091.091,0,0,0-.113,0,5.521,5.521,0,0,1-4.834-.63Zm0,0" fill="#fac5aa"/>
        </g>
        <path id="Trazado_118815" data-name="Trazado 118815" d="M99.3,40.845a1.577,1.577,0,0,0,.034-.59,45.5,45.5,0,0,0-1.075-5.381c0-.019-.009-.037-.013-.056l0-.012,0-.009,0-.009v0A46.024,46.024,0,0,0,82.232,9.911,45.787,45.787,0,0,0,7.993,45.442L3.369,48.5A7.294,7.294,0,0,0,5.8,61.708,7.29,7.29,0,0,0,10.67,72.222a7.286,7.286,0,0,0,4.865,10.515,7.3,7.3,0,0,0,5.01,10.556,7.408,7.408,0,0,0,1.468.148,7.251,7.251,0,0,0,4.016-1.216l7.84-5.191c.788.382,1.592.743,2.4,1.076a45.434,45.434,0,0,0,8.774,2.631,33.682,33.682,0,0,0,5.211,6.489l3.006,2.914a6.578,6.578,0,0,0,10.065-8.354c-.232-.352-.45-.714-.658-1.079a45.7,45.7,0,0,0,32.5-25.3,1.574,1.574,0,0,0-2.844-1.351,42.553,42.553,0,0,1-31.027,23.71A19.485,19.485,0,0,1,60.6,76.733l3.837-16.58a4.255,4.255,0,0,0,2.269,1.269,4.368,4.368,0,0,0,.866.088,4.258,4.258,0,0,0,2.36-.715L96.348,43.3q.072,1.242.073,2.489a42.745,42.745,0,0,1-1.592,11.584,1.574,1.574,0,0,0,3.03.854A45.939,45.939,0,0,0,99.3,40.845ZM80.364,50.111,57.7,16.3,71.047,7.461A42.9,42.9,0,0,1,95.184,35.555l0,.012c0,.01,0,.019.006.029a41.838,41.838,0,0,1,.8,4.163Zm-43.4,34.875,4.2-2.782.947,2.552q.437,1.175.963,2.319a42.238,42.238,0,0,1-5.6-1.872c-.17-.07-.339-.144-.509-.216Zm20.573-8.963a22.644,22.644,0,0,0,1.325,14.138l0,0c0,.008.007.016.011.023A22.815,22.815,0,0,0,60.7,93.53a3.43,3.43,0,0,1-5.25,4.354l-3-2.913a30.558,30.558,0,0,1-5.066-6.443l-.038-.062a30.825,30.825,0,0,1-2.278-4.807l-1.637-4.412a1.575,1.575,0,0,0-2.023-.928c-.017.006-.033.015-.049.021a.9.9,0,0,0-.221.111l-.032.019-.02.012L24.29,89.6A4.153,4.153,0,1,1,19.7,82.676l1.433-.948,0,0,.024-.016,3.251-2.153a1.574,1.574,0,0,0-1.739-2.625L19.4,79.1a4.152,4.152,0,0,1-4.563-6.938l4.709-3.119a1.574,1.574,0,1,0-1.736-2.626l-3.272,2.167a4.153,4.153,0,0,1-4.567-6.938l4.71-3.12A1.574,1.574,0,1,0,12.947,55.9L9.693,58.052a4.152,4.152,0,1,1-4.585-6.924l11.43-7.569A1.574,1.574,0,1,0,14.8,40.934L11.211,43.31a42.707,42.707,0,0,1,56.927-37.7l-24.157,16a4.3,4.3,0,0,0-1.207,5.949l.14.212-2.065,1.37a7.02,7.02,0,0,1-5,1.081,10.153,10.153,0,0,0-7.233,1.564l-8.2,5.43a1.574,1.574,0,0,0,1.739,2.625l8.2-5.43a7.016,7.016,0,0,1,4.993-1.081,10.176,10.176,0,0,0,7.237-1.564L44.653,30.4,62.024,56.624ZM68.195,58.171a1.145,1.145,0,0,1-1.585-.325l-20.2-30.5,0-.006,0-.006-1-1.517a1.15,1.15,0,0,1,.322-1.588l9.349-6.191L77.74,51.849Zm0,0"/>
      </g>
    </g>
  </g>
</svg>
