<svg xmlns="http://www.w3.org/2000/svg" width="357" height="46" viewBox="0 0 357 46">
  <g id="Grupo_82952" data-name="Grupo 82952" transform="translate(-285.333 -135)">
    <path id="Rectángulo_34213" data-name="Rectángulo 34213" d="M0,0H357a0,0,0,0,1,0,0V19a27,27,0,0,1-27,27H0a0,0,0,0,1,0,0V0A0,0,0,0,1,0,0Z" transform="translate(285.333 135)" fill="#ff5f65"/>
    <path id="Trazado_120202" data-name="Trazado 120202" d="M5.627-3.3h7.458V0H1.343V-17.773H5.627ZM21.094.244a6.79,6.79,0,0,1-4.919-1.813,6.26,6.26,0,0,1-1.88-4.718v-.342a8.111,8.111,0,0,1,.751-3.577,5.493,5.493,0,0,1,2.191-2.4,6.615,6.615,0,0,1,3.418-.848,5.717,5.717,0,0,1,4.395,1.727A6.788,6.788,0,0,1,26.66-6.909v1.6H18.481a2.965,2.965,0,0,0,.964,1.746,2.869,2.869,0,0,0,1.929.635A3.7,3.7,0,0,0,24.426-4.3l1.88,2.222A5.255,5.255,0,0,1,24.127-.385,7.363,7.363,0,0,1,21.094.244ZM20.63-10.278q-1.807,0-2.148,2.393h4.15V-8.2a2.038,2.038,0,0,0-.5-1.532A1.992,1.992,0,0,0,20.63-10.278ZM33.423-4.9l2.087-8.313h4.333L35.535,0h-4.2L27.026-13.208h4.346ZM47.461.244a6.79,6.79,0,0,1-4.919-1.813,6.26,6.26,0,0,1-1.88-4.718v-.342a8.111,8.111,0,0,1,.751-3.577A5.493,5.493,0,0,1,43.6-12.6a6.615,6.615,0,0,1,3.418-.848,5.717,5.717,0,0,1,4.395,1.727,6.788,6.788,0,0,1,1.611,4.816v1.6H44.849a2.965,2.965,0,0,0,.964,1.746,2.869,2.869,0,0,0,1.929.635A3.7,3.7,0,0,0,50.793-4.3l1.88,2.222A5.255,5.255,0,0,1,50.494-.385,7.363,7.363,0,0,1,47.461.244ZM47-10.278q-1.807,0-2.148,2.393H49V-8.2a2.038,2.038,0,0,0-.5-1.532A1.992,1.992,0,0,0,47-10.278ZM59.021,0H54.9V-18.75h4.126ZM78.577-6.946h1.807v3.174H78.577V0H74.463V-3.772H67.59l-.244-2.515,7.117-11.45v-.037h4.114Zm-7.312,0h3.2v-5.469L74.207-12Z" transform="translate(300 167)" fill="#fff"/>
    <path id="Trazado_120201" data-name="Trazado 120201" d="M12.366-7.544H5.627V-3.3h7.959V0H1.343V-17.773H13.611v3.308H5.627v3.748h6.738Zm6.555-5.664.134,1.55a4.479,4.479,0,0,1,3.772-1.794,3.768,3.768,0,0,1,3.082,1.233,5.87,5.87,0,0,1,1.056,3.711V0H22.839V-8.337a2.229,2.229,0,0,0-.4-1.471,1.864,1.864,0,0,0-1.465-.47,1.962,1.962,0,0,0-1.794.952V0H15.063V-13.208ZM28.76-6.7a8.918,8.918,0,0,1,.659-3.54,5.307,5.307,0,0,1,1.892-2.374,4.988,4.988,0,0,1,2.869-.836A3.966,3.966,0,0,1,37.4-12.061l.146-1.147h3.735V-.5a5.569,5.569,0,0,1-.812,3.033,5.209,5.209,0,0,1-2.35,1.978,8.637,8.637,0,0,1-3.564.69,7.451,7.451,0,0,1-2.814-.549,5.079,5.079,0,0,1-2.081-1.428L31.384.806a3.772,3.772,0,0,0,3.027,1.355q2.734,0,2.734-2.808v-.415A3.863,3.863,0,0,1,34.155.244a4.774,4.774,0,0,1-3.906-1.849,7.662,7.662,0,0,1-1.489-4.95Zm4.126.256a4.7,4.7,0,0,0,.61,2.57,1.926,1.926,0,0,0,1.709.946,2.185,2.185,0,0,0,1.941-.891V-9.375a2.13,2.13,0,0,0-1.917-.9,1.938,1.938,0,0,0-1.721.983A5.358,5.358,0,0,0,32.886-6.445ZM47.961,0H43.835V-18.75h4.126Zm6.873,0H50.708V-13.208h4.126Zm-4.37-16.614a1.836,1.836,0,0,1,.635-1.44,2.4,2.4,0,0,1,1.648-.562,2.4,2.4,0,0,1,1.648.562,1.836,1.836,0,0,1,.635,1.44,1.836,1.836,0,0,1-.635,1.44,2.4,2.4,0,0,1-1.648.562,2.4,2.4,0,0,1-1.648-.562A1.836,1.836,0,0,1,50.464-16.614Zm13.818,12.9a.95.95,0,0,0-.549-.842,8.356,8.356,0,0,0-2.087-.659,9.519,9.519,0,0,1-2.539-.9,4.253,4.253,0,0,1-1.526-1.349,3.221,3.221,0,0,1-.525-1.819,3.651,3.651,0,0,1,1.5-3,6.185,6.185,0,0,1,3.931-1.178,6.853,6.853,0,0,1,4.2,1.184,3.7,3.7,0,0,1,1.587,3.113H64.148q0-1.587-1.672-1.587a1.658,1.658,0,0,0-1.086.36,1.115,1.115,0,0,0-.439.9,1.023,1.023,0,0,0,.537.891,5.075,5.075,0,0,0,1.715.562,14.821,14.821,0,0,1,2.069.525Q68.25-6.482,68.25-3.833A3.459,3.459,0,0,1,66.644-.891,7.039,7.039,0,0,1,62.488.244a7.184,7.184,0,0,1-3.027-.61,5.062,5.062,0,0,1-2.075-1.66,3.759,3.759,0,0,1-.745-2.209h3.845A1.59,1.59,0,0,0,61.1-2.9a2.511,2.511,0,0,0,1.5.421,1.975,1.975,0,0,0,1.263-.342A1.093,1.093,0,0,0,64.282-3.711Zm9.912-8.081a4.117,4.117,0,0,1,3.369-1.66,4.105,4.105,0,0,1,3.3,1.294,5.814,5.814,0,0,1,1.135,3.821V0H77.869V-8.24a2.325,2.325,0,0,0-.427-1.544,1.836,1.836,0,0,0-1.453-.494,1.977,1.977,0,0,0-1.794.806V0H70.081V-18.75h4.114ZM90.7,0V-17.773h5.725a8.422,8.422,0,0,1,4.236,1.068,7.508,7.508,0,0,1,2.936,3.015,9.1,9.1,0,0,1,1.068,4.364v.818a9.156,9.156,0,0,1-1.031,4.376A7.54,7.54,0,0,1,100.726-1.1,8.236,8.236,0,0,1,96.545,0Zm4.285-14.465V-3.3h1.489A3.333,3.333,0,0,0,99.3-4.608a6.431,6.431,0,0,0,.989-3.9v-.769a6.378,6.378,0,0,0-.989-3.882,3.391,3.391,0,0,0-2.881-1.306Zm11.169,7.739a7.8,7.8,0,0,1,.769-3.522,5.5,5.5,0,0,1,2.209-2.374,6.654,6.654,0,0,1,3.381-.83,6.073,6.073,0,0,1,4.675,1.837,7.05,7.05,0,0,1,1.709,5v.146a6.84,6.84,0,0,1-1.715,4.9A6.089,6.089,0,0,1,112.537.244a6.159,6.159,0,0,1-4.529-1.691,6.613,6.613,0,0,1-1.843-4.584Zm4.114.256a4.915,4.915,0,0,0,.574,2.686,1.911,1.911,0,0,0,1.7.854q2.2,0,2.246-3.381v-.415q0-3.552-2.271-3.552-2.063,0-2.234,3.064ZM127.1.244a6.79,6.79,0,0,1-4.919-1.813,6.26,6.26,0,0,1-1.88-4.718v-.342a8.111,8.111,0,0,1,.751-3.577,5.493,5.493,0,0,1,2.191-2.4,6.615,6.615,0,0,1,3.418-.848,5.717,5.717,0,0,1,4.395,1.727,6.788,6.788,0,0,1,1.611,4.816v1.6h-8.179a2.965,2.965,0,0,0,.964,1.746,2.869,2.869,0,0,0,1.929.635A3.7,3.7,0,0,0,130.432-4.3l1.88,2.222a5.255,5.255,0,0,1-2.179,1.691A7.363,7.363,0,0,1,127.1.244Zm-.464-10.522q-1.807,0-2.148,2.393h4.15V-8.2a2.038,2.038,0,0,0-.5-1.532A1.992,1.992,0,0,0,126.636-10.278Zm14.6,6.567a.95.95,0,0,0-.549-.842,8.356,8.356,0,0,0-2.087-.659,9.518,9.518,0,0,1-2.539-.9,4.253,4.253,0,0,1-1.526-1.349,3.221,3.221,0,0,1-.525-1.819,3.651,3.651,0,0,1,1.5-3,6.185,6.185,0,0,1,3.931-1.178,6.853,6.853,0,0,1,4.2,1.184,3.7,3.7,0,0,1,1.587,3.113H141.1q0-1.587-1.672-1.587a1.658,1.658,0,0,0-1.086.36,1.115,1.115,0,0,0-.439.9,1.023,1.023,0,0,0,.537.891,5.075,5.075,0,0,0,1.715.562,14.821,14.821,0,0,1,2.069.525Q145.2-6.482,145.2-3.833A3.459,3.459,0,0,1,143.6-.891,7.039,7.039,0,0,1,139.441.244a7.184,7.184,0,0,1-3.027-.61,5.062,5.062,0,0,1-2.075-1.66,3.759,3.759,0,0,1-.745-2.209h3.845a1.59,1.59,0,0,0,.61,1.337,2.511,2.511,0,0,0,1.5.421,1.975,1.975,0,0,0,1.263-.342A1.093,1.093,0,0,0,141.235-3.711ZM167.31-6.628l2.039-11.145H173.6L169.824,0h-4.443L163-10.132,160.669,0h-4.431l-3.784-17.773h4.26l2.039,11.145,2.441-11.145h3.638Zm6.873-.1a7.8,7.8,0,0,1,.769-3.522,5.5,5.5,0,0,1,2.209-2.374,6.654,6.654,0,0,1,3.381-.83,6.073,6.073,0,0,1,4.675,1.837,7.05,7.05,0,0,1,1.709,5v.146a6.84,6.84,0,0,1-1.715,4.9A6.089,6.089,0,0,1,180.566.244a6.159,6.159,0,0,1-4.529-1.691,6.613,6.613,0,0,1-1.843-4.584Zm4.114.256a4.914,4.914,0,0,0,.574,2.686,1.911,1.911,0,0,0,1.7.854q2.2,0,2.246-3.381v-.415q0-3.552-2.271-3.552-2.063,0-2.234,3.064Zm18.433-3.015-1.355-.1a2.434,2.434,0,0,0-2.49,1.221V0H188.77V-13.208h3.857l.134,1.7a3.185,3.185,0,0,1,2.893-1.941,4.012,4.012,0,0,1,1.147.146Zm6.787,4.565-1.16,1.16V0h-4.114V-18.762h4.114V-8.8l.415-.549,3.1-3.857H210.8l-4.626,5.432L211.108,0H206.4Z" transform="translate(409 167)" fill="#12263f"/>
    <line id="Línea_184" data-name="Línea 184" y2="27" transform="translate(402.605 144.5)" fill="none" stroke="#fafafa" stroke-linecap="round" stroke-width="3"/>
  </g>
</svg>
